<svg width="142" height="34" viewBox="0 0 142 34" fill="none" xmlns="http://www.w3.org/2000/svg">
<path d="M18.5471 13.0177V15.032C18.4774 14.9384 18.4057 14.8429 18.3341 14.7553C18.1103 14.4736 17.8619 14.2125 17.5917 13.975C17.298 13.7172 16.9746 13.4953 16.6283 13.3142C15.8731 12.9226 15.0326 12.7243 14.1821 12.737C13.9599 12.7364 13.7379 12.749 13.5173 12.7748H13.4317C12.6079 12.8705 11.819 13.162 11.1307 13.6247C10.7881 13.8572 10.4699 14.124 10.1813 14.4209C9.64441 14.9479 9.22023 15.5785 8.93452 16.2745C8.64882 16.9704 8.50755 17.7172 8.51931 18.4694C8.51215 19.2044 8.64034 19.9345 8.89749 20.623C9.14711 21.2754 9.51712 21.8749 9.98824 22.3905C10.044 22.4522 10.1017 22.5159 10.1614 22.5757C10.6795 23.1177 11.3017 23.5496 11.9906 23.8455C12.6708 24.1293 13.4014 24.2721 14.1383 24.2655C14.9746 24.2745 15.8014 24.0877 16.5527 23.7201C17.3248 23.3284 18.0036 22.7752 18.5431 22.098V22.2632H19.9364V13.0177H18.5471ZM18.5869 19.2616C18.5162 19.8028 18.3433 20.3256 18.0773 20.8022C17.7038 21.4663 17.1523 22.013 16.485 22.3806C15.8187 22.7633 15.0639 22.965 14.2955 22.9658C13.538 22.966 12.7948 22.7595 12.1459 22.3687C11.5926 22.0443 11.1203 21.5985 10.7645 21.0649C10.7406 21.0311 10.7187 20.9953 10.6948 20.9594C10.6431 20.8818 10.5973 20.8042 10.5515 20.7246C10.1648 20.0503 9.9613 19.2865 9.9613 18.5092C9.9613 17.7319 10.1648 16.9682 10.5515 16.2939C10.818 15.8111 11.1756 15.3846 11.6045 15.0379C11.7715 14.8997 11.95 14.7759 12.1379 14.6677C12.7921 14.2886 13.5355 14.0907 14.2915 14.0945C14.4547 14.0945 14.612 14.1044 14.7712 14.1184C15.7658 14.2057 16.6944 14.653 17.3827 15.3763C18.0465 16.0428 18.4701 16.911 18.5869 17.8444C18.6199 18.0812 18.6365 18.3199 18.6366 18.559C18.6364 18.7941 18.6197 19.0288 18.5869 19.2616Z" fill="white"/>
<path d="M28.3618 14.4727C28.0892 14.194 27.7906 13.9421 27.4701 13.7203C26.7878 13.2447 26.0003 12.9421 25.1751 12.8385H25.1214C24.8778 12.807 24.6325 12.7917 24.3869 12.7927C23.5545 12.7844 22.7315 12.969 21.9825 13.3321C21.2083 13.7234 20.529 14.2791 19.9921 14.9603V16.0093H18.5809V22.3229H19.9921V22.0283C20.4921 22.7429 21.15 23.3327 21.9148 23.752C22.6645 24.1388 23.4976 24.3356 24.3411 24.3252C25.0846 24.3313 25.8218 24.1878 26.5087 23.9033C27.1948 23.6079 27.8152 23.1789 28.3339 22.6413C28.3976 22.5757 28.4613 22.512 28.517 22.4423C28.9966 21.9263 29.3723 21.3229 29.6237 20.6648C29.8835 19.9973 30.0165 19.2872 30.0158 18.5709C30.0287 17.8118 29.8889 17.0579 29.6048 16.3539C29.3207 15.6499 28.898 15.0101 28.3618 14.4727ZM27.8542 20.9714C27.4916 21.5474 26.9934 22.0257 26.4032 22.3647C25.7444 22.7508 24.9932 22.9509 24.2297 22.9439C23.6553 22.956 23.0846 22.8487 22.5539 22.6287C22.0232 22.4087 21.5439 22.0809 21.1465 21.666C20.4746 20.9887 20.0492 20.1057 19.9383 19.1581C19.9112 18.9389 19.8972 18.7182 19.8965 18.4973C19.8971 18.2797 19.9111 18.0623 19.9383 17.8464C20.0051 17.2872 20.1802 16.7463 20.4538 16.2541C20.8259 15.5853 21.3774 15.0338 22.0462 14.6617C22.6537 14.3118 23.3362 14.1125 24.0366 14.0805C24.1043 14.0805 24.1739 14.0805 24.2356 14.0805C24.9876 14.0792 25.7258 14.2821 26.3714 14.6677C26.5715 14.7848 26.7619 14.918 26.9406 15.0658C27.3553 15.4153 27.7027 15.8376 27.9657 16.3118C28.3536 16.9889 28.5577 17.7557 28.5577 18.5361C28.5577 19.3165 28.3536 20.0833 27.9657 20.7604C27.9259 20.834 27.8821 20.9057 27.8363 20.9754C27.8562 20.9674 27.8542 20.9674 27.8542 20.9714Z" fill="white"/>
<path d="M14.8767 16.676C14.8767 17.687 14.4751 18.6565 13.7603 19.3713C13.0455 20.0861 12.076 20.4877 11.0651 20.4877H10.9596C10.8979 20.3961 10.8382 20.3006 10.7824 20.2031C10.4603 19.6408 10.2909 19.004 10.2909 18.356C10.2909 17.7079 10.4603 17.0712 10.7824 16.5088C11.091 15.948 11.5454 15.481 12.0976 15.1573C12.6498 14.8335 13.2792 14.6651 13.9193 14.6697C14.0567 14.6697 14.188 14.6697 14.3174 14.6896C14.6844 15.2871 14.8781 15.9749 14.8767 16.676Z" fill="white"/>
<path d="M14.7772 14.1184C14.618 14.1044 14.4607 14.0945 14.2975 14.0945C13.5299 14.0888 12.775 14.2907 12.1128 14.679C11.4506 15.0672 10.9056 15.6273 10.5356 16.2999C10.1489 16.9741 9.9454 17.7379 9.9454 18.5152C9.9454 19.2925 10.1489 20.0563 10.5356 20.7305C10.6013 20.848 10.673 20.9614 10.7486 21.0709C10.1055 21.0551 9.47306 20.9024 8.89354 20.6231C8.63639 19.9345 8.50819 19.2044 8.51536 18.4694C8.50333 17.7169 8.64446 16.9697 8.93017 16.2734C9.21589 15.5771 9.64021 14.9461 10.1774 14.4189C11.0576 13.4899 12.2406 12.9054 13.5133 12.7708C14.0223 13.1289 14.4524 13.5875 14.7772 14.1184Z" fill="white"/>
<path d="M28.0692 18.6187C28.069 19.2772 27.8967 19.9242 27.5696 20.4957C27.5362 20.5585 27.4997 20.6196 27.4602 20.6788C26.4527 20.6513 25.4957 20.2318 24.7927 19.5096C24.0898 18.7873 23.6964 17.8193 23.6963 16.8114C23.6949 16.1192 23.8814 15.4395 24.2357 14.8449C24.2934 14.8449 24.3511 14.8449 24.4108 14.8449C25.0473 14.8438 25.672 15.0158 26.2181 15.3425C26.7848 15.6774 27.251 16.1587 27.5677 16.7358C27.8954 17.3092 28.0683 17.9582 28.0692 18.6187Z" fill="white"/>
<path d="M30.0158 18.5709C30.0222 19.2825 29.8967 19.9891 29.6456 20.6549C29.1176 20.8627 28.555 20.9687 27.9876 20.9674H27.8642C27.91 20.8977 27.9538 20.8261 27.9936 20.7524C28.3815 20.0753 28.5856 19.3085 28.5856 18.5281C28.5856 17.7478 28.3815 16.981 27.9936 16.3038C27.6203 15.6215 27.0703 15.0523 26.4012 14.6558C25.7557 14.2702 25.0175 14.0672 24.2655 14.0686C24.1958 14.0686 24.1262 14.0686 24.0665 14.0686C24.3466 13.5929 24.7108 13.1721 25.1413 12.8266C26.3803 12.978 27.527 13.559 28.3817 14.4687C28.9148 15.0083 29.3341 15.6494 29.6148 16.3541C29.8955 17.0587 30.0319 17.8126 30.0158 18.5709Z" fill="white"/>
<path d="M18.7839 17.6334C18.7839 17.6334 22.5478 6.76972 26.6361 8.16899C29.0246 8.98307 24.2695 11.1805 24.2695 11.1805C24.2695 11.1805 20.3981 12.4703 18.7839 17.6334Z" fill="white"/>
<path d="M19.5602 17.7409C19.5602 17.7409 15.7963 6.8772 11.704 8.27647C9.31546 9.09055 14.0706 11.288 14.0706 11.288C14.0706 11.288 17.9479 12.5778 19.5602 17.7409Z" fill="white"/>
<path d="M21.9209 23.7361C20.4081 20.7504 20.2608 21.6879 19.9304 21.5108L19.5324 21.2918L19.1343 21.5108C18.4675 21.3117 16.7836 22.1736 16.2681 25.9554C16.3238 25.9196 16.3258 25.8439 16.9946 25.6827C16.7 23.0295 17.8743 22.5418 19.5423 22.2174C20.7784 22.926 21.057 23.6346 21.057 25.6907C21.059 25.6907 22.297 24.3909 21.9209 23.7361Z" fill="white"/>
<path d="M42.5023 12.7872H45.2172V23.6111H42.5023V22.4666C42.0426 22.924 41.5029 23.293 40.9099 23.5554C40.3595 23.7816 39.7693 23.8953 39.1743 23.8898C37.777 23.8898 36.5681 23.3477 35.5477 22.2636C34.5273 21.1795 34.0171 19.8313 34.0171 18.2191C34.0171 16.5471 34.5107 15.1777 35.498 14.1108C35.9478 13.602 36.5022 13.1963 37.1233 12.9215C37.7444 12.6467 38.4175 12.5092 39.0966 12.5185C39.7245 12.5146 40.3465 12.64 40.9239 12.8867C41.5176 13.1484 42.0545 13.5237 42.5042 13.9914L42.5023 12.7872ZM39.646 15.0145C39.2552 15.0064 38.8672 15.0818 38.5078 15.2355C38.1485 15.3893 37.826 15.6179 37.562 15.9062C36.9933 16.5267 36.6916 17.3461 36.7221 18.1872C36.6879 19.0373 36.9896 19.8667 37.562 20.4961C37.8247 20.7876 38.1468 21.0192 38.5067 21.1755C38.8665 21.3317 39.2557 21.4089 39.648 21.4018C40.0446 21.4131 40.4391 21.3395 40.805 21.1861C41.1709 21.0327 41.4998 20.8028 41.7698 20.512C42.3324 19.9189 42.6137 19.1413 42.6137 18.1793C42.6137 17.2371 42.3324 16.4741 41.7698 15.8903C41.4966 15.6041 41.1665 15.3782 40.8007 15.2274C40.4349 15.0766 40.0415 15.004 39.646 15.0145Z" fill="#3B82F6"/>
<path d="M47.9639 13.0659H50.6809V14.1745C51.1795 13.7292 51.7442 13.3639 52.3548 13.0917C52.8416 12.8913 53.3629 12.7878 53.8894 12.7872C54.3973 12.7777 54.9018 12.8726 55.3716 13.0661C55.8413 13.2595 56.2663 13.5474 56.6203 13.9118C57.2492 14.5461 57.5637 15.4875 57.5637 16.7362V23.8898H54.8787V19.1486C54.8787 17.8561 54.8209 16.9983 54.7055 16.575C54.6162 16.1941 54.4026 15.8537 54.0984 15.6076C53.7912 15.3781 53.4149 15.2601 53.0315 15.2732C52.5064 15.2648 51.999 15.4628 51.6183 15.8246C51.1987 16.2402 50.9131 16.7719 50.7983 17.3512C50.7207 17.6896 50.6809 18.4201 50.6809 19.5407V23.8838H47.9639V13.0659Z" fill="#3B82F6"/>
<path d="M60.5195 11.3302H63.2384V14.5686H64.8507V16.9054H63.2384V23.8898H60.5195V16.9054H59.1262V14.5686H60.5195V11.3302Z" fill="#3B82F6"/>
<path d="M69.5919 11.1133V13.9815C70.0473 13.515 70.5878 13.1401 71.1842 12.8768C71.763 12.63 72.3862 12.5047 73.0154 12.5085C73.6948 12.4991 74.3683 12.6365 74.9897 12.9113C75.6111 13.1861 76.1659 13.5919 76.6161 14.1009C77.6046 15.1624 78.0989 16.5319 78.0989 18.2091C78.0989 19.8214 77.5881 21.1695 76.5663 22.2536C75.5446 23.3378 74.3344 23.8798 72.9358 23.8798C72.3419 23.8892 71.752 23.781 71.2001 23.5614C70.6037 23.2999 70.0605 22.9309 69.5978 22.4726V23.6171H66.8968V11.1133H69.5919ZM72.4481 15.0145C72.0517 15.0037 71.6573 15.076 71.2905 15.2269C70.9237 15.3777 70.5926 15.6037 70.3184 15.8903C69.7558 16.4728 69.4738 17.2358 69.4725 18.1793C69.4711 19.1227 69.7531 19.9003 70.3184 20.512C70.5904 20.8023 70.9208 21.0317 71.2879 21.1851C71.655 21.3384 72.0504 21.4123 72.4481 21.4018C72.8416 21.409 73.232 21.3319 73.5932 21.1757C73.9543 21.0195 74.2779 20.7878 74.5421 20.4961C75.1188 19.8687 75.4243 19.0388 75.392 18.1872C75.4252 17.3461 75.1255 16.5258 74.558 15.9042C74.2899 15.6143 73.963 15.385 73.5991 15.2316C73.2353 15.0781 72.8429 15.0041 72.4481 15.0145Z" fill="white"/>
<path d="M80.3382 12.7872H83.083V18.0001C83.083 19.0152 83.1493 19.7198 83.282 20.114C83.4038 20.4842 83.6401 20.8063 83.9567 21.0335C84.2927 21.2607 84.6919 21.3756 85.0973 21.362C85.5053 21.3745 85.9074 21.262 86.2497 21.0395C86.5794 20.8055 86.8256 20.4721 86.9523 20.0881C87.0651 19.7776 87.1215 19.1141 87.1215 18.0977V12.7872H89.8384V17.3652C89.8384 19.2561 89.6892 20.5492 89.3906 21.2445C89.0663 22.0459 88.5035 22.7283 87.7783 23.1991C87.0698 23.6542 86.1681 23.8818 85.0734 23.8818C83.8791 23.8818 82.9191 23.6164 82.1932 23.0857C81.4475 22.5358 80.9034 21.756 80.6447 20.8663C80.4337 20.2095 80.3282 19.0152 80.3282 17.2836L80.3382 12.7872Z" fill="white"/>
<path d="M93.4053 10.1101C93.6339 10.1075 93.8607 10.1521 94.0713 10.2412C94.2819 10.3302 94.4719 10.4618 94.6294 10.6276C94.7952 10.791 94.926 10.9865 95.014 11.202C95.1019 11.4176 95.1451 11.6488 95.1409 11.8816C95.1448 12.1114 95.1019 12.3396 95.015 12.5524C94.9281 12.7652 94.799 12.9581 94.6354 13.1196C94.48 13.284 94.2922 13.4145 94.084 13.5029C93.8757 13.5913 93.6514 13.6356 93.4252 13.6331C93.1941 13.6364 92.9649 13.5915 92.7521 13.5014C92.5393 13.4113 92.3476 13.2779 92.1891 13.1097C92.0233 12.9434 91.8927 12.7455 91.8051 12.5276C91.7176 12.3098 91.6749 12.0765 91.6796 11.8418C91.6791 11.3834 91.8605 10.9435 92.1841 10.6188C92.5077 10.2941 92.9469 10.1111 93.4053 10.1101ZM92.0478 14.5686H94.7628V23.8898H92.0478V14.5686Z" fill="white"/>
<path d="M97.1613 11.3919H99.8762V23.8898H97.1613V11.3919Z" fill="white"/>
<path d="M110.332 10.6117H113.049V23.6111H110.332V22.4666C109.872 22.924 109.332 23.293 108.74 23.5554C108.19 23.7816 107.6 23.8953 107.006 23.8898C105.609 23.8898 104.4 23.3477 103.379 22.2636C102.359 21.1795 101.85 19.8313 101.853 18.2191C101.853 16.5471 102.346 15.1777 103.334 14.1108C103.783 13.6021 104.337 13.1964 104.958 12.9216C105.579 12.6467 106.251 12.5092 106.93 12.5185C107.559 12.5148 108.181 12.6401 108.759 12.8867C109.352 13.1486 109.889 13.5239 110.338 13.9914L110.332 10.6117ZM107.478 15.0145C107.085 15.005 106.696 15.0797 106.335 15.2335C105.974 15.3873 105.65 15.6167 105.386 15.9062C104.845 16.5493 104.549 17.3634 104.552 18.2037C104.555 19.044 104.855 19.8563 105.4 20.4961C105.663 20.7876 105.985 21.0193 106.345 21.1755C106.705 21.3318 107.095 21.4089 107.488 21.4018C107.885 21.4132 108.28 21.3397 108.647 21.1863C109.014 21.0329 109.344 20.803 109.615 20.512C110.177 19.9189 110.457 19.1413 110.457 18.1793C110.457 17.2371 110.177 16.4741 109.615 15.8903C109.341 15.6023 109.008 15.3754 108.64 15.2245C108.271 15.0736 107.875 15.0021 107.478 15.0145Z" fill="white"/>
<path d="M126.639 18.9834H117.913C118.01 19.6992 118.37 20.3533 118.923 20.8186C119.518 21.2877 120.261 21.529 121.018 21.4993C121.504 21.5063 121.985 21.4156 122.434 21.2327C122.884 21.0497 123.292 20.7783 123.634 20.4344L125.923 21.5092C125.405 22.2724 124.699 22.8894 123.873 23.3006C122.985 23.7086 122.015 23.908 121.038 23.8838C119.339 23.8838 117.955 23.3484 116.888 22.2775C115.821 21.2067 115.291 19.8652 115.296 18.2529C115.296 16.6009 115.827 15.2295 116.888 14.1387C117.406 13.6028 118.029 13.1806 118.718 12.8989C119.408 12.6172 120.149 12.4822 120.893 12.5026C122.597 12.5026 123.983 13.048 125.051 14.1387C126.119 15.2295 126.653 16.6705 126.653 18.4619L126.639 18.9834ZM123.922 16.8437C123.747 16.246 123.373 15.7263 122.862 15.3708C122.325 14.99 121.68 14.7912 121.022 14.8035C120.307 14.7912 119.607 15.0151 119.032 15.4405C118.674 15.7072 118.341 16.1729 118.037 16.8337L123.922 16.8437Z" fill="white"/>
<path d="M128.2 13.0659H130.529V14.4273C130.741 13.9361 131.086 13.5131 131.524 13.2052C131.929 12.9304 132.408 12.7847 132.897 12.7872C133.281 12.7947 133.658 12.89 134 13.0659L133.164 15.4006C132.924 15.2635 132.656 15.1819 132.38 15.1618C131.962 15.1618 131.608 15.4206 131.319 15.9381C131.03 16.4556 130.886 17.4707 130.887 18.9834V23.8898H128.2V13.0659Z" fill="white"/>
</svg>
