<svg width="212" height="51" viewBox="0 0 212 51" fill="none" xmlns="http://www.w3.org/2000/svg">
<path d="M26.965 19.4182V22.4229C26.8611 22.2834 26.7542 22.1408 26.6474 22.0102C26.3136 21.59 25.943 21.2005 25.5399 20.8463C25.1019 20.4617 24.6194 20.1308 24.1029 19.8606C22.9764 19.2765 21.7227 18.9807 20.4539 18.9996C20.1225 18.9987 19.7914 19.0175 19.4622 19.056H19.3346C18.1058 19.1988 16.9289 19.6335 15.9024 20.3238C15.3912 20.6706 14.9167 21.0685 14.4861 21.5114C13.6852 22.2975 13.0525 23.2382 12.6263 24.2763C12.2001 25.3145 11.9894 26.4284 12.007 27.5505C11.9963 28.6468 12.1875 29.7358 12.5711 30.763C12.9434 31.736 13.4954 32.6304 14.1981 33.3995C14.2813 33.4915 14.3674 33.5865 14.4564 33.6756C15.2293 34.4841 16.1573 35.1284 17.185 35.5699C18.1995 35.9931 19.2894 36.2062 20.3886 36.1963C21.6361 36.2097 22.8694 35.9311 23.9901 35.3828C25.1418 34.7985 26.1544 33.9732 26.9591 32.963V33.2095H29.0374V19.4182H26.965ZM27.0244 28.7321C26.9191 29.5394 26.6611 30.3193 26.2643 31.0302C25.7072 32.0208 24.8846 32.8363 23.8891 33.3846C22.8952 33.9555 21.7693 34.2564 20.6231 34.2576C19.4932 34.2579 18.3845 33.9499 17.4166 33.3668C16.5914 32.8829 15.8868 32.218 15.356 31.4221C15.3204 31.3716 15.2878 31.3182 15.2521 31.2647C15.1749 31.1489 15.1066 31.0332 15.0384 30.9144C14.4615 29.9086 14.1579 28.7693 14.1579 27.6098C14.1579 26.4504 14.4615 25.3111 15.0384 24.3053C15.4359 23.5851 15.9693 22.9489 16.609 22.4318C16.8582 22.2257 17.1244 22.0409 17.4047 21.8796C18.3805 21.3141 19.4894 21.0189 20.6172 21.0245C20.8607 21.0245 21.0952 21.0393 21.3328 21.0601C22.8164 21.1905 24.2014 21.8577 25.2281 22.9366C26.2184 23.9307 26.8503 25.2258 27.0244 26.6182C27.0737 26.9713 27.0985 27.3275 27.0986 27.6841C27.0983 28.0347 27.0735 28.3849 27.0244 28.7321Z" fill="#3B82F6"/>
<path d="M41.6054 21.5886C41.1987 21.173 40.7533 20.7972 40.2752 20.4663C39.2576 19.7569 38.0828 19.3056 36.8519 19.151H36.7718C36.4085 19.104 36.0425 19.0811 35.6762 19.0827C34.4345 19.0703 33.2069 19.3457 32.0896 19.8873C30.9348 20.4709 29.9215 21.2998 29.1205 22.316V23.8807H27.0155V33.2985H29.1205V32.8591C29.8664 33.9251 30.8478 34.8049 31.9886 35.4303C33.1069 36.0073 34.3497 36.3009 35.6079 36.2854C36.717 36.2945 37.8165 36.0804 38.8412 35.656C39.8646 35.2153 40.7901 34.5754 41.5638 33.7736C41.6588 33.6756 41.7538 33.5806 41.837 33.4767C42.5523 32.707 43.1128 31.8069 43.4878 30.8253C43.8753 29.8296 44.0737 28.7703 44.0727 27.7019C44.0919 26.5696 43.8834 25.445 43.4596 24.3948C43.0357 23.3446 42.4052 22.3904 41.6054 21.5886ZM40.8483 31.2825C40.3074 32.1417 39.5643 32.8553 38.6838 33.3609C37.7011 33.9368 36.5806 34.2354 35.4416 34.2249C34.5848 34.243 33.7336 34.0829 32.9419 33.7548C32.1503 33.4266 31.4354 32.9376 30.8426 32.3187C29.8404 31.3084 29.2058 29.9912 29.0404 28.5777C28.9999 28.2507 28.9791 27.9215 28.978 27.592C28.9789 27.2674 28.9997 26.9432 29.0404 26.6211C29.14 25.787 29.4012 24.9802 29.8093 24.2459C30.3643 23.2483 31.187 22.4256 32.1846 21.8706C33.0908 21.3487 34.1089 21.0514 35.1536 21.0037C35.2546 21.0037 35.3585 21.0037 35.4505 21.0037C36.5722 21.0016 37.6734 21.3044 38.6363 21.8796C38.9349 22.0543 39.2189 22.2529 39.4855 22.4734C40.104 22.9947 40.6222 23.6246 41.0145 24.332C41.5932 25.342 41.8977 26.4859 41.8977 27.6499C41.8977 28.814 41.5932 29.9578 41.0145 30.9678C40.9552 31.0777 40.8898 31.1846 40.8216 31.2885C40.8512 31.2766 40.8483 31.2766 40.8483 31.2825Z" fill="#3B82F6"/>
<path d="M21.4901 24.8753C21.4901 26.3833 20.8911 27.8295 19.8248 28.8958C18.7585 29.962 17.3123 30.5611 15.8044 30.5611H15.647C15.555 30.4245 15.4659 30.282 15.3828 30.1365C14.9023 29.2977 14.6495 28.3479 14.6495 27.3812C14.6495 26.4146 14.9023 25.4647 15.3828 24.6259C15.8431 23.7894 16.5209 23.0928 17.3446 22.6098C18.1683 22.1269 19.1072 21.8756 20.062 21.8825C20.2669 21.8825 20.4628 21.8825 20.6558 21.9122C21.2033 22.8035 21.4921 23.8294 21.4901 24.8753Z" fill="#3B82F6"/>
<path d="M21.3417 21.0601C21.1042 21.0393 20.8696 21.0245 20.6262 21.0245C19.4811 21.016 18.3551 21.3173 17.3673 21.8964C16.3794 22.4755 15.5665 23.3109 15.0146 24.3142C14.4378 25.32 14.1342 26.4593 14.1342 27.6188C14.1342 28.7782 14.4378 29.9175 15.0146 30.9233C15.1126 31.0985 15.2195 31.2677 15.3323 31.431C14.373 31.4074 13.4296 31.1797 12.5652 30.763C12.1816 29.7358 11.9904 28.6468 12.0011 27.5505C11.9831 26.4279 12.1936 25.3134 12.6198 24.2747C13.046 23.236 13.679 22.2949 14.4802 21.5084C15.7933 20.1226 17.5578 19.2509 19.4563 19.0501C20.2155 19.5842 20.8572 20.2683 21.3417 21.0601Z" fill="#3B82F6"/>
<path d="M41.169 27.7731C41.1686 28.7554 40.9117 29.7205 40.4238 30.573C40.374 30.6667 40.3195 30.7579 40.2605 30.8461C38.7576 30.8051 37.3301 30.1794 36.2816 29.102C35.233 28.0246 34.6462 26.5806 34.646 25.0772C34.644 24.0447 34.9221 23.0309 35.4506 22.1438C35.5367 22.1438 35.6228 22.1438 35.7119 22.1438C36.6612 22.1422 37.5931 22.3988 38.4078 22.8861C39.2531 23.3857 39.9484 24.1036 40.4208 24.9644C40.9097 25.8199 41.1676 26.7878 41.169 27.7731Z" fill="#3B82F6"/>
<path d="M44.0727 27.7019C44.0822 28.7633 43.895 29.8173 43.5205 30.8105C42.7328 31.1205 41.8937 31.2786 41.0472 31.2766H40.8631C40.9314 31.1727 40.9967 31.0658 41.0561 30.956C41.6348 29.9459 41.9392 28.8021 41.9392 27.638C41.9392 26.474 41.6348 25.3302 41.0561 24.3201C40.4993 23.3024 39.6789 22.4532 38.6809 21.8618C37.7179 21.2866 36.6168 20.9838 35.4951 20.9859C35.3912 20.9859 35.2873 20.9859 35.1982 20.9859C35.6161 20.2764 36.1593 19.6486 36.8015 19.1332C38.6496 19.359 40.3601 20.2258 41.6351 21.5827C42.4303 22.3876 43.0557 23.3439 43.4745 24.3951C43.8932 25.4462 44.0966 26.5707 44.0727 27.7019Z" fill="#3B82F6"/>
<path d="M27.3183 26.3035C27.3183 26.3035 32.9328 10.0984 39.0312 12.1856C42.5941 13.4 35.501 16.6778 35.501 16.6778C35.501 16.6778 29.7262 18.6017 27.3183 26.3035Z" fill="#3B82F6"/>
<path d="M28.4763 26.4638C28.4763 26.4638 22.8618 10.2587 16.7574 12.3459C13.1945 13.5603 20.2876 16.8381 20.2876 16.8381C20.2876 16.8381 26.0713 18.7621 28.4763 26.4638Z" fill="#3B82F6"/>
<path d="M31.9976 35.4066C29.7412 30.953 29.5215 32.3514 29.0286 32.0872L28.4348 31.7606L27.841 32.0872C26.8463 31.7903 24.3345 33.0759 23.5655 38.7171C23.6487 38.6636 23.6516 38.5508 24.6492 38.3103C24.2098 34.3526 25.9616 33.6251 28.4496 33.1412C30.2934 34.1982 30.7091 35.2551 30.7091 38.3222C30.712 38.3222 32.5588 36.3834 31.9976 35.4066Z" fill="#3B82F6"/>
<path d="M62.7313 19.0743H66.7811V35.2201H62.7313V33.5129C62.0456 34.195 61.2405 34.7455 60.356 35.1369C59.535 35.4743 58.6547 35.6439 57.767 35.6357C55.6828 35.6357 53.8796 34.8271 52.3574 33.21C50.8353 31.5929 50.0742 29.5818 50.0742 27.1769C50.0742 24.6829 50.8105 22.6402 52.2832 21.0488C52.9542 20.2898 53.7812 19.6846 54.7077 19.2747C55.6342 18.8647 56.6382 18.6597 57.6512 18.6735C58.5878 18.6678 59.5156 18.8547 60.3768 19.2228C61.2626 19.6131 62.0634 20.1729 62.7343 20.8706L62.7313 19.0743ZM58.4707 22.3967C57.8878 22.3847 57.309 22.4971 56.7729 22.7264C56.2369 22.9558 55.7559 23.2969 55.3621 23.7269C54.5138 24.6525 54.0638 25.8747 54.1092 27.1294C54.0582 28.3974 54.5083 29.6346 55.3621 30.5735C55.7538 31.0082 56.2344 31.3538 56.7712 31.5869C57.308 31.8199 57.8886 31.9351 58.4737 31.9244C59.0653 31.9413 59.6537 31.8316 60.1995 31.6027C60.7454 31.3738 61.236 31.031 61.6387 30.5972C62.4779 29.7125 62.8976 28.5526 62.8976 27.1175C62.8976 25.7122 62.4779 24.574 61.6387 23.7031C61.2312 23.2762 60.7387 22.9393 60.1931 22.7143C59.6474 22.4893 59.0607 22.3811 58.4707 22.3967Z" fill="#3B82F6"/>
<path d="M70.8783 19.49H74.9311V21.1438C75.6749 20.4795 76.5172 19.9347 77.428 19.5286C78.1542 19.2296 78.9318 19.0753 79.7172 19.0743C80.4748 19.0602 81.2274 19.2017 81.9281 19.4903C82.6288 19.7789 83.2628 20.2082 83.7907 20.7519C84.7289 21.698 85.1981 23.1024 85.1981 24.9649V35.6357H81.1928V28.5634C81.1928 26.6355 81.1067 25.3559 80.9345 24.7245C80.8013 24.1563 80.4827 23.6486 80.0289 23.2815C79.5706 22.939 79.0093 22.7631 78.4375 22.7827C77.6542 22.7701 76.8973 23.0654 76.3295 23.6051C75.7035 24.2251 75.2775 25.0182 75.1062 25.8824C74.9905 26.3871 74.9311 27.4768 74.9311 29.1483V35.6268H70.8783V19.49Z" fill="#3B82F6"/>
<path d="M89.6071 16.901H93.6628V21.7317H96.0678V25.2173H93.6628V35.6357H89.6071V25.2173H87.5288V21.7317H89.6071V16.901Z" fill="#3B82F6"/>
<path d="M103.14 16.5774V20.8558C103.819 20.16 104.626 19.6007 105.515 19.208C106.379 18.8398 107.308 18.6529 108.247 18.6587C109.26 18.6446 110.265 18.8495 111.192 19.2595C112.119 19.6694 112.946 20.2747 113.618 21.0339C115.092 22.6174 115.83 24.6601 115.83 27.162C115.83 29.567 115.068 31.578 113.544 33.1952C112.02 34.8123 110.214 35.6209 108.128 35.6209C107.242 35.6348 106.362 35.4734 105.539 35.1458C104.649 34.7559 103.839 34.2053 103.149 33.5218V35.229H99.12V16.5774H103.14ZM107.401 22.3967C106.809 22.3806 106.221 22.4885 105.674 22.7135C105.127 22.9385 104.633 23.2756 104.224 23.7031C103.385 24.572 102.964 25.7102 102.962 27.1175C102.96 28.5248 103.381 29.6847 104.224 30.5972C104.63 31.0303 105.122 31.3725 105.67 31.6012C106.218 31.83 106.807 31.9401 107.401 31.9244C107.988 31.9352 108.57 31.8202 109.109 31.5872C109.647 31.3542 110.13 31.0085 110.524 30.5735C111.384 29.6376 111.84 28.3997 111.792 27.1294C111.841 25.8747 111.394 24.6511 110.548 23.7239C110.148 23.2915 109.66 22.9494 109.118 22.7205C108.575 22.4916 107.989 22.3812 107.401 22.3967Z" fill="#3B4350"/>
<path d="M119.17 19.0744H123.264V26.8503C123.264 28.3645 123.363 29.4156 123.561 30.0034C123.743 30.5558 124.095 31.0361 124.568 31.3751C125.069 31.7139 125.664 31.8854 126.269 31.865C126.878 31.8837 127.477 31.7159 127.988 31.3841C128.48 31.0349 128.847 30.5376 129.036 29.9648C129.204 29.5017 129.289 28.512 129.289 26.9958V19.0744H133.341V25.9032C133.341 28.7238 133.119 30.6527 132.673 31.6899C132.19 32.8853 131.35 33.9032 130.268 34.6055C129.211 35.2844 127.866 35.6238 126.233 35.6238C124.452 35.6238 123.02 35.228 121.937 34.4362C120.825 33.6161 120.013 32.4528 119.627 31.1257C119.313 30.146 119.155 28.3645 119.155 25.7815L119.17 19.0744Z" fill="#3B4350"/>
<path d="M138.662 15.081C139.003 15.0771 139.341 15.1437 139.655 15.2765C139.97 15.4093 140.253 15.6055 140.488 15.8529C140.735 16.0967 140.93 16.3883 141.061 16.7098C141.193 17.0313 141.257 17.3762 141.251 17.7234C141.257 18.0662 141.193 18.4067 141.063 18.7241C140.933 19.0415 140.741 19.3293 140.497 19.5702C140.265 19.8155 139.985 20.0101 139.674 20.142C139.364 20.2738 139.029 20.3399 138.692 20.3362C138.347 20.341 138.005 20.2741 137.688 20.1397C137.37 20.0052 137.084 19.8062 136.848 19.5553C136.6 19.3074 136.406 19.0121 136.275 18.6872C136.144 18.3622 136.081 18.0142 136.088 17.664C136.087 16.9803 136.358 16.3241 136.84 15.8398C137.323 15.3555 137.978 15.0825 138.662 15.081ZM136.637 21.7316H140.687V35.6357H136.637V21.7316Z" fill="#3B4350"/>
<path d="M144.265 16.993H148.314V35.6357H144.265V16.993Z" fill="#3B4350"/>
<path d="M163.911 15.8292H167.963V35.2201H163.911V33.5129C163.225 34.195 162.42 34.7455 161.535 35.1369C160.715 35.4743 159.836 35.6439 158.949 35.6357C156.865 35.6357 155.062 34.8272 153.54 33.21C152.018 31.5929 151.259 29.5818 151.263 27.1769C151.263 24.6829 151.999 22.6402 153.472 21.0488C154.142 20.2898 154.968 19.6847 155.894 19.2747C156.82 18.8648 157.824 18.6597 158.837 18.6735C159.774 18.668 160.703 18.8549 161.565 19.2228C162.45 19.6135 163.25 20.1732 163.92 20.8706L163.911 15.8292ZM159.653 22.3967C159.068 22.3826 158.487 22.494 157.949 22.7234C157.41 22.9529 156.927 23.295 156.533 23.7269C155.726 24.6862 155.285 25.9005 155.289 27.154C155.293 28.4075 155.741 29.619 156.553 30.5735C156.946 31.0083 157.427 31.3539 157.964 31.587C158.501 31.82 159.082 31.9351 159.668 31.9244C160.261 31.9414 160.851 31.8318 161.398 31.603C161.945 31.3741 162.437 31.0313 162.842 30.5972C163.679 29.7125 164.098 28.5526 164.098 27.1175C164.098 25.7122 163.679 24.574 162.842 23.7031C162.432 23.2735 161.936 22.9351 161.387 22.71C160.837 22.4849 160.247 22.3782 159.653 22.3967Z" fill="#3B4350"/>
<path d="M188.236 28.317H175.22C175.365 29.3847 175.901 30.3604 176.725 31.0545C177.613 31.7542 178.722 32.1143 179.852 32.0699C180.575 32.0803 181.293 31.9451 181.964 31.6722C182.634 31.3993 183.242 30.9943 183.753 30.4815L187.167 32.0847C186.394 33.2232 185.341 34.1434 184.109 34.7569C182.785 35.3654 181.338 35.6629 179.881 35.6268C177.346 35.6268 175.282 34.8281 173.691 33.2308C172.099 31.6334 171.308 29.6323 171.316 27.2274C171.316 24.7631 172.107 22.7174 173.691 21.0903C174.462 20.291 175.392 19.6611 176.421 19.2409C177.449 18.8207 178.554 18.6194 179.665 18.6498C182.206 18.6498 184.273 19.4633 185.867 21.0903C187.46 22.7174 188.257 24.867 188.257 27.5391L188.236 28.317ZM184.183 25.1253C183.922 24.2338 183.364 23.4585 182.601 22.9282C181.8 22.3602 180.839 22.0637 179.858 22.082C178.79 22.0637 177.747 22.3976 176.888 23.0321C176.354 23.43 175.858 24.1247 175.404 25.1104L184.183 25.1253Z" fill="#3B4350"/>
<path d="M190.564 19.49H194.038V21.5209C194.355 20.788 194.869 20.1572 195.522 19.6979C196.126 19.288 196.841 19.0706 197.571 19.0744C198.144 19.0855 198.706 19.2277 199.216 19.49L197.969 22.9727C197.61 22.7682 197.211 22.6465 196.799 22.6164C196.175 22.6164 195.648 23.0024 195.216 23.7744C194.785 24.5463 194.57 26.0605 194.572 28.317V35.6357H190.564V19.49Z" fill="#3B4350"/>
</svg>
