<svg width="23" height="19" viewBox="0 0 23 19" fill="none" xmlns="http://www.w3.org/2000/svg">
<path d="M10.284 5.09779V7.16261C10.2125 7.06671 10.1391 6.96877 10.0656 6.879C9.83629 6.59026 9.5816 6.32258 9.3046 6.07919C9.00359 5.81485 8.67206 5.58745 8.31708 5.4018C7.54296 5.00039 6.68142 4.79709 5.80951 4.8101C5.58179 4.8095 5.35423 4.82245 5.12804 4.84887H5.04031C4.19587 4.947 3.38716 5.24572 2.68169 5.72009C2.33042 5.9584 2.00433 6.23186 1.70846 6.53623C1.15809 7.07643 0.72327 7.72286 0.430401 8.43627C0.137533 9.14968 -0.00727298 9.91516 0.00477972 10.6862C-0.00256328 11.4397 0.128846 12.188 0.392441 12.8939C0.648319 13.5625 1.02761 14.1772 1.51054 14.7057C1.56767 14.7689 1.62684 14.8342 1.68805 14.8954C2.21914 15.4511 2.85689 15.8938 3.56311 16.1972C4.26031 16.488 5.00923 16.6345 5.76463 16.6277C6.62191 16.6369 7.46946 16.4454 8.23954 16.0686C9.03103 15.6671 9.72688 15.1 10.2799 14.4058V14.5751H11.7081V5.09779H10.284ZM10.3248 11.4983C10.2524 12.0531 10.0751 12.589 9.80244 13.0775C9.41958 13.7583 8.85428 14.3186 8.17017 14.6955C7.48718 15.0878 6.71345 15.2946 5.92581 15.2954C5.14929 15.2956 4.38742 15.0839 3.72226 14.6833C3.15518 14.3507 2.67101 13.8938 2.30627 13.3468C2.28179 13.3122 2.25934 13.2754 2.23486 13.2387C2.18181 13.1591 2.13488 13.0796 2.08796 12.9979C1.69152 12.3068 1.48292 11.5239 1.48292 10.7271C1.48292 9.93026 1.69152 9.14734 2.08796 8.45617C2.36113 7.96129 2.72767 7.52407 3.16729 7.16872C3.33856 7.02707 3.52148 6.90013 3.7141 6.78923C4.38467 6.40063 5.14671 6.19779 5.92173 6.20161C6.08904 6.20161 6.25023 6.21181 6.41345 6.22609C7.43299 6.31567 8.38482 6.77417 9.09036 7.51558C9.77088 8.19879 10.2051 9.08875 10.3248 10.0456C10.3586 10.2883 10.3757 10.533 10.3758 10.7781C10.3755 11.019 10.3585 11.2597 10.3248 11.4983Z" fill="#3B82F6"/>
<path d="M20.3448 6.58927C20.0653 6.30368 19.7593 6.04542 19.4307 5.81802C18.7314 5.33055 17.924 5.02036 17.0782 4.91416H17.0231C16.7735 4.88183 16.522 4.86615 16.2702 4.86723C15.417 4.85867 14.5734 5.04794 13.8055 5.42016C13.0119 5.82121 12.3156 6.39082 11.7652 7.08914V8.1644H10.3186V14.6363H11.7652V14.3344C12.2778 15.0669 12.9522 15.6715 13.7362 16.1013C14.5046 16.4978 15.3587 16.6996 16.2233 16.6889C16.9855 16.6951 17.7411 16.548 18.4452 16.2564C19.1485 15.9535 19.7845 15.5138 20.3162 14.9628C20.3815 14.8954 20.4468 14.8302 20.5039 14.7587C20.9955 14.2298 21.3806 13.6112 21.6383 12.9367C21.9047 12.2525 22.041 11.5245 22.0403 10.7903C22.0535 10.0122 21.9102 9.23935 21.619 8.51768C21.3277 7.79602 20.8944 7.14023 20.3448 6.58927ZM19.8245 13.2509C19.4528 13.8414 18.9421 14.3317 18.3371 14.6792C17.6618 15.0749 16.8918 15.2801 16.1091 15.2729C15.5203 15.2853 14.9353 15.1753 14.3913 14.9498C13.8472 14.7244 13.356 14.3883 12.9486 13.963C12.2599 13.2687 11.8238 12.3635 11.7101 11.3922C11.6823 11.1675 11.668 10.9413 11.6673 10.7148C11.6679 10.4917 11.6822 10.2689 11.7101 10.0476C11.7786 9.47438 11.9581 8.91997 12.2386 8.41536C12.6199 7.72979 13.1853 7.16444 13.8708 6.78309C14.4936 6.42439 15.1932 6.2201 15.9111 6.18732C15.9805 6.18732 16.0519 6.18732 16.1152 6.18732C16.886 6.18591 17.6427 6.39395 18.3044 6.78922C18.5096 6.9093 18.7048 7.04576 18.888 7.19729C19.313 7.55556 19.6691 7.9884 19.9388 8.47453C20.3364 9.16863 20.5456 9.95466 20.5456 10.7546C20.5456 11.5545 20.3364 12.3406 19.9388 13.0347C19.8979 13.1102 19.8531 13.1836 19.8061 13.255C19.8265 13.2469 19.8245 13.2469 19.8245 13.2509Z" fill="#3B82F6"/>
<path d="M6.5216 8.84792C6.5216 9.88418 6.10995 10.878 5.3772 11.6107C4.64446 12.3435 3.65063 12.7551 2.61437 12.7551H2.50624C2.44299 12.6613 2.38178 12.5633 2.32465 12.4634C1.99446 11.887 1.82075 11.2342 1.82075 10.5699C1.82075 9.90566 1.99446 9.25293 2.32465 8.67652C2.64094 8.10163 3.10675 7.62293 3.67279 7.29106C4.23884 6.95919 4.88407 6.7865 5.54021 6.79126C5.68099 6.79126 5.81565 6.79126 5.94827 6.81166C6.32446 7.42413 6.52296 8.12914 6.5216 8.84792Z" fill="#3B82F6"/>
<path d="M6.4196 6.2261C6.25638 6.21181 6.09519 6.20161 5.92788 6.20161C5.14101 6.19579 4.36721 6.40281 3.68837 6.80077C3.00953 7.19874 2.45092 7.77284 2.07166 8.4623C1.67522 9.15347 1.46663 9.93639 1.46663 10.7332C1.46663 11.53 1.67522 12.3129 2.07166 13.0041C2.13899 13.1245 2.21244 13.2407 2.28998 13.353C1.6307 13.3368 0.982445 13.1803 0.388391 12.8939C0.124796 12.188 -0.00661616 11.4397 0.000726841 10.6863C-0.0116037 9.91482 0.133067 9.14894 0.425944 8.43517C0.71882 7.72139 1.15379 7.07463 1.7044 6.53419C2.60674 5.58184 3.81933 4.98277 5.12399 4.8448C5.6457 5.21187 6.08664 5.68198 6.4196 6.2261Z" fill="#3B82F6"/>
<path d="M20.0449 10.8393C20.0446 11.5143 19.8681 12.1775 19.5328 12.7633C19.4985 12.8277 19.4611 12.8904 19.4206 12.951C18.3878 12.9229 17.4068 12.4928 16.6862 11.7525C15.9657 11.0121 15.5624 10.0198 15.5623 8.98667C15.5609 8.27708 15.752 7.58041 16.1152 6.97082C16.1744 6.97082 16.2336 6.97082 16.2948 6.97082C16.9471 6.96971 17.5875 7.14603 18.1474 7.4809C18.7283 7.82424 19.2061 8.31756 19.5307 8.90913C19.8667 9.49699 20.0439 10.1622 20.0449 10.8393Z" fill="#3B82F6"/>
<path d="M22.0403 10.7903C22.0469 11.5197 21.9182 12.244 21.6608 12.9265C21.1195 13.1396 20.5429 13.2482 19.9612 13.2469H19.8347C19.8816 13.1755 19.9265 13.102 19.9673 13.0265C20.365 12.3324 20.5742 11.5464 20.5742 10.7464C20.5742 9.9465 20.365 9.16047 19.9673 8.46637C19.5847 7.76696 19.0209 7.18343 18.3351 6.77698C17.6733 6.38171 16.9166 6.17367 16.1458 6.17508C16.0744 6.17508 16.003 6.17508 15.9418 6.17508C16.2289 5.6875 16.6022 5.25612 17.0435 4.90192C18.3136 5.0571 19.489 5.65276 20.3652 6.58519C20.9116 7.13833 21.3415 7.79554 21.6292 8.51787C21.9169 9.2402 22.0567 10.0129 22.0403 10.7903Z" fill="#3B82F6"/>
<path d="M10.5267 9.82932C10.5267 9.82932 14.385 -1.3068 18.5758 0.127551C21.0242 0.962046 16.1499 3.21457 16.1499 3.21457C16.1499 3.21457 12.1814 4.5367 10.5267 9.82932Z" fill="#3B82F6"/>
<path d="M11.3225 9.93949C11.3225 9.93949 7.4642 -1.19663 3.26929 0.237725C0.820892 1.07222 5.69524 3.32474 5.69524 3.32474C5.69524 3.32474 9.6698 4.64688 11.3225 9.93949Z" fill="#3B82F6"/>
<path d="M13.7424 16.085C12.1917 13.0245 12.0407 13.9855 11.702 13.8039L11.294 13.5794L10.8859 13.8039C10.2024 13.5998 8.47626 14.4833 7.94782 18.3599C8.00495 18.3232 8.00699 18.2457 8.69254 18.0804C8.39057 15.3606 9.59436 14.8608 11.3042 14.5282C12.5712 15.2545 12.8568 15.9809 12.8568 18.0886C12.8589 18.0886 14.128 16.7562 13.7424 16.085Z" fill="#3B82F6"/>
</svg>
