<svg width="25" height="25" viewBox="0 0 25 25" fill="none" xmlns="http://www.w3.org/2000/svg">
<path d="M23.375 12.3586C23.375 18.1546 18.5084 22.8586 12.5 22.8586C6.49156 22.8586 1.625 18.1546 1.625 12.3586C1.625 6.55739 6.49156 1.85864 12.5 1.85864C18.5084 1.85864 23.375 6.55739 23.375 12.3586Z" fill="#283544"/>
<path d="M17.5974 9.70168C17.538 9.73511 16.1253 10.4405 16.1253 12.0045C16.1919 13.7882 17.9081 14.4137 17.9375 14.4137C17.9081 14.4472 17.6784 15.2659 16.9981 16.1241C16.4582 16.8633 15.859 17.6086 14.949 17.6086C14.0835 17.6086 13.7728 17.1159 12.774 17.1159C11.7015 17.1159 11.398 17.6086 10.5768 17.6086C9.66688 17.6086 9.02326 16.8234 8.45394 16.0911C7.7143 15.1326 7.08563 13.6285 7.06344 12.1842C7.04848 11.4189 7.21156 10.6667 7.62552 10.0277C8.2098 9.13563 9.25292 8.53007 10.392 8.5101C11.2648 8.48362 12.0416 9.04924 12.5743 9.04924C13.0847 9.04924 14.0391 8.5101 15.1189 8.5101C15.5849 8.51054 16.8278 8.63686 17.5974 9.70168ZM12.5005 8.3573C12.3451 7.65842 12.774 6.95953 13.1735 6.51372C13.684 5.97458 14.4902 5.60864 15.1855 5.60864C15.2298 6.30753 14.9486 6.99296 14.4458 7.49216C13.9947 8.0313 13.2179 8.43718 12.5005 8.3573Z" fill="white"/>
</svg>
