<svg width="456" height="351" viewBox="0 0 456 351" fill="none" xmlns="http://www.w3.org/2000/svg">
<g opacity="0.4">
<path d="M164.621 126.233V177.397C162.923 175.002 161.055 172.591 159.221 170.333C153.559 163.168 147.249 156.54 140.372 150.533C132.921 143.973 124.712 138.329 115.919 133.721C97.4209 123.974 76.7266 119.101 53.8361 119.101C48.1964 119.084 42.5604 119.395 36.9569 120.035C36.2268 120.035 35.4966 120.188 34.7664 120.34C13.8484 122.746 -6.18851 130.129 -23.6655 141.872C-32.3605 147.705 -40.4348 154.414 -47.7616 161.893C-75.9162 190.308 -89.9935 224.564 -89.9935 264.662C-90.1655 283.318 -86.9076 301.846 -80.3822 319.324C-74.031 335.878 -64.6178 351.087 -52.6352 364.155C-51.2597 365.853 -49.7993 367.364 -48.271 368.892C-35.111 382.653 -19.3164 393.626 -1.8278 401.156C15.4419 408.328 33.9824 411.938 52.6814 411.769C73.908 412.004 94.8953 407.271 113.966 397.947C132.668 388.777 149.53 375.045 164.553 356.751V360.928H199.839V126.233H164.621ZM165.639 284.751C163.84 298.475 159.443 311.73 152.683 323.807C143.206 340.691 129.187 354.58 112.217 363.9C95.2525 373.641 76.0305 378.764 56.4682 378.758C37.2471 378.803 18.3756 373.62 1.87405 363.764C-12.161 355.504 -24.1528 344.186 -33.2088 330.651C-33.7862 329.768 -34.3805 328.953 -34.9069 327.951C-36.2145 325.981 -37.3862 324.028 -38.5409 321.991C-48.384 304.893 -53.5774 285.515 -53.6042 265.787C-53.631 246.058 -48.4903 226.666 -38.6937 209.542C-31.9244 197.292 -22.8548 186.464 -11.9825 177.651C-7.72313 174.149 -3.1791 171.008 1.60236 168.261C18.3605 158.489 37.4431 153.414 56.8418 153.572C60.9851 153.572 64.9927 153.776 68.9832 154.15C94.1944 156.388 117.732 167.716 135.209 186.023C152.055 202.956 162.805 225.001 165.775 248.7C166.595 254.705 167.004 260.759 166.998 266.819C166.96 272.821 166.506 278.812 165.639 284.751Z" fill="#D0E1FF"/>
<path d="M413.75 163.2C406.84 156.106 399.259 149.697 391.114 144.063C373.786 132.002 353.785 124.332 332.835 121.716L331.46 121.495C325.266 120.7 319.026 120.314 312.781 120.34C291.619 120.116 270.694 124.801 251.649 134.027C233.094 143.197 216.306 156.974 201.283 175.359V202.002H165.64V362.27H201.436V354.764C215.564 374.213 231.843 388.794 250.273 398.507C269.291 408.342 290.439 413.34 311.847 413.06C330.724 413.227 349.442 409.588 366.882 402.362C384.308 394.877 400.067 383.996 413.241 370.353C414.837 368.654 416.45 367.075 417.894 365.258C430.131 352.195 439.721 336.885 446.133 320.173C452.507 303.268 455.692 285.327 455.524 267.26C455.524 226.472 441.599 191.785 413.75 163.2ZM400.861 328.138C391.691 342.862 379.043 355.108 364.03 363.798C347.306 373.581 328.249 378.662 308.875 378.503C277.936 378.503 251.853 367.681 230.626 346.036C213.494 328.733 202.675 306.174 199.907 281.983C199.237 276.404 198.897 270.791 198.889 265.172C198.898 259.649 199.238 254.131 199.907 248.649C201.607 234.41 206.06 220.638 213.017 208.098C222.541 191.138 236.608 177.172 253.636 167.768C269.068 158.871 286.41 153.804 304.205 152.995C305.903 152.995 307.703 152.859 309.452 152.859C328.543 152.821 347.285 157.975 363.673 167.768C368.768 170.769 373.612 174.176 378.158 177.957C398.738 195.195 412.614 219.11 417.366 245.533C422.117 271.955 417.442 299.206 404.156 322.534C403.137 324.424 402.05 326.241 400.895 327.985C400.895 327.985 400.861 328.053 400.861 328.138Z" fill="#D0E1FF"/>
<path d="M71.4458 219.136C71.4458 231.847 68.9422 244.433 64.0779 256.177C59.2137 267.92 52.084 278.591 43.096 287.578C34.1081 296.566 23.4378 303.696 11.6944 308.56C-0.0489273 313.425 -12.6354 315.928 -25.3463 315.928C-26.2633 315.928 -27.0444 315.928 -28.0123 315.928C-29.5916 313.619 -31.1199 311.19 -32.5123 308.711C-40.7255 294.452 -45.0584 278.289 -45.0793 261.834C-45.1001 245.378 -40.8082 229.205 -32.6312 214.925C-24.795 200.69 -13.2567 188.839 0.76281 180.625C14.7823 172.41 30.7617 168.138 47.01 168.261C50.4062 168.261 53.8024 168.448 57.1986 168.736C66.5292 183.89 71.462 201.34 71.4458 219.136Z" fill="#D0E1FF"/>
<path d="M68.8986 154.184C64.9081 153.81 60.9006 153.606 56.7572 153.606C37.2634 153.46 18.0934 158.591 1.27981 168.457C-15.5337 178.323 -29.364 192.555 -38.7444 209.644C-48.541 226.768 -53.6817 246.16 -53.6548 265.888C-53.628 285.617 -48.4346 304.995 -38.5916 322.092C-36.8934 325.064 -35.0934 327.985 -33.2085 330.753C-49.5328 330.349 -65.5845 326.477 -80.2971 319.392C-86.8596 301.898 -90.1467 283.346 -89.9935 264.662C-89.9935 224.576 -75.9216 190.297 -47.7783 161.825C-23.7671 137.44 4.4498 123.487 36.8723 119.967C49.7662 129.073 60.6644 140.716 68.8986 154.184Z" fill="#D0E1FF"/>
<path d="M406.329 268.415C406.327 285.138 401.954 301.569 393.644 316.081C392.778 317.694 391.946 319.223 390.876 320.7C373.789 320.245 357.117 315.334 342.511 306.453C327.906 297.573 315.874 285.03 307.607 270.069C299.34 255.107 295.126 238.245 295.381 221.153C295.636 204.062 300.352 187.333 309.062 172.625C310.539 172.625 312.016 172.489 313.494 172.489C329.639 172.465 345.488 176.832 359.342 185.123C373.737 193.635 385.57 205.872 393.593 220.546C401.932 235.122 406.322 251.622 406.329 268.415Z" fill="#D0E1FF"/>
<path d="M455.523 267.21C455.698 285.293 452.514 303.252 446.133 320.173C432.763 325.423 418.52 328.097 404.156 328.053C403.137 328.053 402.05 328.053 401.031 328.053C402.163 326.309 403.25 324.492 404.292 322.602C414.139 305.42 419.319 285.961 419.319 266.157C419.319 246.353 414.139 226.894 404.292 209.712C394.817 192.37 380.837 177.909 363.826 167.853C347.438 158.06 328.696 152.906 309.605 152.944C307.907 152.944 306.107 152.944 304.358 153.08C311.427 140.998 320.627 130.297 331.511 121.495C362.937 125.367 390.35 139.268 413.75 163.2C441.554 191.819 455.478 226.489 455.523 267.21Z" fill="#D0E1FF"/>
<path d="M170.649 243.402C170.649 243.402 266.201 -32.3365 369.939 3.15397C430.408 23.8539 309.877 79.5688 309.877 79.5688C309.877 79.5688 211.59 112.359 170.649 243.402Z" fill="#D0E1FF"/>
<path d="M190.347 246.136C190.347 246.136 94.7945 -29.6364 -8.94281 5.88794C-69.4124 26.5709 51.1192 82.3027 51.1192 82.3027C51.1192 82.3027 149.44 115.093 190.347 246.136Z" fill="#D0E1FF"/>
<path d="M250.273 398.507C211.879 322.483 208.143 346.528 199.907 342.028L189.872 336.475L179.683 342.028C162.702 337.036 119.977 358.873 106.919 454.867C108.294 453.95 108.396 452.032 125.343 447.956C117.668 380.388 147.657 368.145 189.872 359.773C221.236 377.79 228.317 395.739 228.317 447.956C228.317 447.956 259.817 414.928 250.273 398.507Z" fill="#D0E1FF"/>
</g>
</svg>
