<svg width="25" height="25" viewBox="0 0 25 25" fill="none" xmlns="http://www.w3.org/2000/svg">
<g clip-path="url(#clip0_988_3589)">
<path d="M24.2109 12.5831C24.2109 11.5998 24.1311 10.8823 23.9584 10.1382H12.7305V14.5762H19.321C19.1882 15.6791 18.4707 17.34 16.8761 18.4561L16.8538 18.6047L20.4039 21.3549L20.6498 21.3794C22.9087 19.2933 24.2109 16.2238 24.2109 12.5831Z" fill="#4285F4"/>
<path d="M12.734 24.2762C15.9628 24.2762 18.6734 23.2132 20.6533 21.3795L16.8797 18.4562C15.8698 19.1604 14.5145 19.6521 12.734 19.6521C9.57158 19.6521 6.88751 17.566 5.93072 14.6826L5.79048 14.6945L2.09906 17.5514L2.05078 17.6855C4.01732 21.5921 8.05674 24.2762 12.734 24.2762Z" fill="#34A853"/>
<path d="M5.92895 14.6827C5.67649 13.9386 5.53038 13.1413 5.53038 12.3175C5.53038 11.4936 5.67649 10.6964 5.91567 9.9523L5.90898 9.79383L2.1713 6.89111L2.04901 6.94928C1.23851 8.57038 0.773438 10.3908 0.773438 12.3175C0.773438 14.2442 1.23851 16.0645 2.04901 17.6856L5.92895 14.6827Z" fill="#FBBC05"/>
<path d="M12.734 4.98267C14.9795 4.98267 16.4943 5.95266 17.358 6.76325L20.733 3.46792C18.6602 1.54124 15.9628 0.358643 12.734 0.358643C8.05674 0.358643 4.01732 3.0427 2.05078 6.94921L5.91744 9.95223C6.88751 7.06884 9.57158 4.98267 12.734 4.98267Z" fill="#EB4335"/>
</g>
<defs>
<clipPath id="clip0_988_3589">
<rect width="23.4504" height="24" fill="white" transform="translate(0.773438 0.358643)"/>
</clipPath>
</defs>
</svg>
