<svg width="14" height="17" viewBox="0 0 14 17" fill="none" xmlns="http://www.w3.org/2000/svg">
<g clip-path="url(#clip0_1086_1049)">
<path d="M5.76002 0.855597L1.23998 3.55302C0.479992 4.00953 0 4.86025 0 5.77327V11.1889C0 12.102 0.479992 12.9527 1.23998 13.4092L5.76002 16.1067C6.52001 16.5631 7.47999 16.5631 8.23998 16.1067L12.76 13.4092C13.52 12.9527 14 12.1019 14 11.1889V5.79404C14 4.88102 13.52 4.03029 12.76 3.57378L8.23998 0.876363C7.47999 0.378378 6.52001 0.378321 5.76002 0.855597Z" fill="#32BEBE"/>
<path d="M8.52505 4.493C8.5548 4.47393 8.58116 4.49214 8.61348 4.50917C10.3004 5.39739 11.4902 6.97067 11.4612 8.9558C11.4577 9.19444 11.4309 9.44255 11.3634 9.66434C11.3439 9.72857 11.3277 9.81821 11.2891 9.85169C11.251 9.8206 11.2537 9.74621 11.2472 9.6968C10.9641 7.56063 8.87615 7.70446 8.36772 9.74202C8.33365 9.74031 8.33272 9.72414 8.30953 9.7048C7.49217 8.95949 5.08756 6.92687 5.92253 5.79552C6.32027 5.31041 6.73819 5.45033 6.85495 5.47637C6.8112 5.41458 6.6373 5.20193 6.63276 5.14474C7.18948 5.27109 7.57666 5.41861 7.90359 5.93532C8.04205 6.15416 8.126 6.55416 7.98551 6.80976L7.97359 6.80029C7.97243 6.79917 7.9713 6.79804 7.97019 6.79688C7.9148 6.7027 7.80389 6.53237 7.74269 6.43404C7.60423 6.21124 7.61002 6.33396 7.46532 6.52426C7.44607 6.55127 7.30345 6.74865 7.28135 6.75802C7.27205 6.53334 7.25434 6.36885 7.15634 6.20301C6.94054 5.8379 6.3218 5.83819 6.30387 6.33334C6.36922 8.06497 9.83548 8.07932 8.9217 5.33453C8.83453 5.07263 8.76584 4.9259 8.63208 4.69169C8.60501 4.64431 8.52511 4.53992 8.52505 4.493ZM2.53809 9.44488L2.55477 8.95126C2.63007 6.9747 3.26898 5.10627 5.30861 4.5398C5.35427 4.52715 5.45446 4.48834 5.50056 4.49237C5.45796 4.57248 5.36581 4.6842 5.31014 4.77651C3.3269 8.0619 9.29702 9.05958 8.17839 11.6773C7.4003 13.1293 5.86134 12.2048 5.92188 11.7925L6.72687 11.919C6.76488 11.9711 6.62313 12.0597 6.63199 12.105C6.64047 12.1485 6.91418 12.3598 7.18302 12.1916C8.33638 11.4701 7.60625 9.3478 5.51916 9.64091C5.50636 9.62145 5.50171 9.58616 5.49745 9.56324C5.19923 7.96738 3.51284 7.71189 2.66961 9.2202C2.64702 9.26065 2.56537 9.43149 2.53809 9.44482V9.44488Z" fill="white"/>
</g>
<defs>
<clipPath id="clip0_1086_1049">
<rect width="14" height="16" fill="white" transform="translate(0 0.5)"/>
</clipPath>
</defs>
</svg>
