<svg width="14" height="17" viewBox="0 0 14 17" fill="none" xmlns="http://www.w3.org/2000/svg">
<g clip-path="url(#clip0_1086_494)">
<path d="M0 3.25869C0 1.73512 1.08073 0.5 2.41385 0.5H11.5861C12.9193 0.5 14 1.73512 14 3.25869V12.1742C14 13.7502 12.2546 14.4342 11.4085 13.1902L8.76203 9.29956V14.0173C8.76203 15.3885 7.78947 16.5 6.58973 16.5H2.4138C1.08079 16.5 0 15.2649 0 13.7413V3.25869ZM2.41385 2.70712C2.35049 2.70706 2.28774 2.72127 2.22918 2.74893C2.17063 2.7766 2.11742 2.81719 2.0726 2.86837C2.02778 2.91956 1.99222 2.98033 1.96796 3.04723C1.94371 3.11413 1.93123 3.18584 1.93123 3.25825V13.7414C1.93123 14.0462 2.14703 14.2933 2.41347 14.2933H6.66203C6.79547 14.2933 6.83085 14.1697 6.83085 14.0173V7.69106C6.83085 6.11469 8.57615 5.43069 9.42276 6.67512L12.0691 10.5653V3.25875C12.0691 2.95381 12.094 2.70719 11.8276 2.70719H2.41391L2.41385 2.70712Z" fill="#00E0D9"/>
<path d="M0 3.25869C0 1.73512 1.08073 0.5 2.41385 0.5H11.5861C12.9193 0.5 14 1.73512 14 3.25869V12.1742C14 13.7502 12.2546 14.4342 11.4085 13.1902L8.76203 9.29956V14.0173C8.76203 15.3885 7.78947 16.5 6.58973 16.5H2.4138C1.08079 16.5 0 15.2649 0 13.7413V3.25869ZM2.41385 2.70712C2.35049 2.70706 2.28774 2.72127 2.22918 2.74893C2.17063 2.7766 2.11742 2.81719 2.0726 2.86837C2.02778 2.91956 1.99222 2.98033 1.96796 3.04723C1.94371 3.11413 1.93123 3.18584 1.93123 3.25825V13.7414C1.93123 14.0462 2.14703 14.2933 2.41347 14.2933H6.66203C6.79547 14.2933 6.83085 14.1697 6.83085 14.0173V7.69106C6.83085 6.11469 8.57615 5.43069 9.42276 6.67512L12.0691 10.5653V3.25875C12.0691 2.95381 12.094 2.70719 11.8276 2.70719H2.41391L2.41385 2.70712Z" fill="url(#paint0_linear_1086_494)"/>
<path d="M0 3.25869C0 1.73512 1.08073 0.5 2.41385 0.5H11.5861C12.9193 0.5 14 1.73512 14 3.25869V12.1742C14 13.7502 12.2546 14.4342 11.4085 13.1902L8.76203 9.29956V14.0173C8.76203 15.3885 7.78947 16.5 6.58973 16.5H2.4138C1.08079 16.5 0 15.2649 0 13.7413V3.25869ZM2.41385 2.70712C2.35049 2.70706 2.28774 2.72127 2.22918 2.74893C2.17063 2.7766 2.11742 2.81719 2.0726 2.86837C2.02778 2.91956 1.99222 2.98033 1.96796 3.04723C1.94371 3.11413 1.93123 3.18584 1.93123 3.25825V13.7414C1.93123 14.0462 2.14703 14.2933 2.41347 14.2933H6.66203C6.79547 14.2933 6.83085 14.1697 6.83085 14.0173V7.69106C6.83085 6.11469 8.57615 5.43069 9.42276 6.67512L12.0691 10.5653V3.25875C12.0691 2.95381 12.094 2.70719 11.8276 2.70719H2.41391L2.41385 2.70712Z" fill="url(#paint1_linear_1086_494)" fill-opacity="0.4"/>
<path d="M11.5863 0.5C12.9194 0.5 14.0001 1.73512 14.0001 3.25869V12.1742C14.0001 13.7502 12.2548 14.4342 11.4086 13.1902L8.76214 9.29956V14.0173C8.76214 15.3885 7.78958 16.5 6.58984 16.5C6.65379 16.5 6.71512 16.471 6.76034 16.4193C6.80556 16.3676 6.83096 16.2975 6.83096 16.2244V7.69112C6.83096 6.11469 8.57626 5.43069 9.42287 6.67512L12.0693 10.5653V1.05156C12.0693 0.747125 11.8531 0.5 11.5863 0.5Z" fill="#63F655"/>
</g>
<defs>
<linearGradient id="paint0_linear_1086_494" x1="1400" y1="1600.5" x2="-18.5318" y2="188.921" gradientUnits="userSpaceOnUse">
<stop stop-color="#62F755"/>
<stop offset="1" stop-color="#8FF986" stop-opacity="0"/>
</linearGradient>
<linearGradient id="paint1_linear_1086_494" x1="1400" y1="1600.5" x2="542.017" y2="1308.49" gradientUnits="userSpaceOnUse">
<stop stop-opacity="0.9"/>
<stop offset="1" stop-color="#1A1A1A" stop-opacity="0"/>
</linearGradient>
<clipPath id="clip0_1086_494">
<rect width="14" height="16" fill="white" transform="translate(0 0.5)"/>
</clipPath>
</defs>
</svg>
