<svg width="14" height="17" viewBox="0 0 14 17" fill="none" xmlns="http://www.w3.org/2000/svg">
<g clip-path="url(#clip0_1086_929)">
<path d="M12.9971 3.76011L7.95734 0.767924C7.66332 0.592576 7.32736 0.5 6.98503 0.5C6.64269 0.5 6.30673 0.592576 6.01271 0.767924L0.971902 3.76011C0.673846 3.93991 0.427584 4.19403 0.257223 4.49758C0.086861 4.80113 -0.00176272 5.14371 2.65662e-05 5.4918V11.4752C-0.00158929 11.8231 0.0871169 12.1655 0.25747 12.4688C0.427824 12.7722 0.673992 13.0261 0.971902 13.2059L6.01165 16.197C6.30571 16.3723 6.64167 16.4648 6.98399 16.4648C7.32632 16.4648 7.66228 16.3723 7.95634 16.197L12.9961 13.2059C13.2943 13.0262 13.5408 12.7721 13.7113 12.4686C13.8819 12.165 13.9706 11.8224 13.969 11.4742V5.4918C13.9708 5.14371 13.8821 4.80113 13.7118 4.49758C13.5414 4.19403 13.2951 3.93991 12.9971 3.76011Z" fill="white"/>
<path d="M13.0258 3.76729L7.9749 0.768541C7.68023 0.592789 7.34351 0.5 7.0004 0.5C6.6573 0.5 6.32058 0.592789 6.0259 0.768541L0.974027 3.76729C0.675318 3.94749 0.428518 4.20217 0.257784 4.50638C0.0870501 4.8106 -0.00176698 5.15394 2.66365e-05 5.50279V11.4994C-0.00159355 11.848 0.087306 12.1912 0.258032 12.4952C0.428757 12.7992 0.675464 13.0537 0.974027 13.2339L6.0249 16.2316C6.3196 16.4072 6.6563 16.5 6.99937 16.5C7.34244 16.5 7.67914 16.4072 7.97384 16.2316L13.0247 13.2339C13.3236 13.0538 13.5706 12.7991 13.7415 12.4949C13.9125 12.1907 14.0014 11.8472 13.9997 11.4983V5.50279C14.0015 5.15395 13.9127 4.81061 13.742 4.5064C13.5713 4.20218 13.3245 3.9475 13.0258 3.76729ZM6.2019 15.9252L1.15103 12.9274C0.905639 12.7787 0.702908 12.569 0.562547 12.3188C0.422187 12.0685 0.348973 11.7862 0.350027 11.4993V5.50285C0.348886 5.21592 0.422063 4.93358 0.562433 4.68332C0.702803 4.43306 0.905581 4.22341 1.15103 4.07479L6.2019 1.07598C6.44319 0.93202 6.71893 0.856014 6.9999 0.856014C7.28087 0.856014 7.55661 0.93202 7.7979 1.07598L12.8447 4.07473C13.0503 4.19922 13.2262 4.36707 13.3601 4.56656C13.4941 4.76604 13.583 4.99237 13.6205 5.22973C13.4525 4.87273 13.0753 4.7746 12.6353 5.02748L7.86059 7.98473C7.2649 8.33167 6.82596 8.7231 6.82496 9.44116V15.3295C6.82496 15.7593 6.9979 16.0374 7.2649 16.1194C7.17746 16.1354 7.0888 16.1439 6.9999 16.1447C6.71902 16.1445 6.44338 16.0686 6.2019 15.9252Z" fill="#2F3A3E"/>
<path d="M11.6879 12.0663L10.4325 12.8171C10.416 12.8237 10.4019 12.8349 10.3917 12.8494C10.3815 12.8639 10.3757 12.8811 10.375 12.8988V13.2288C10.375 13.2692 10.4022 13.2853 10.4355 13.2661L11.7101 12.4911C11.7254 12.4797 11.7371 12.4641 11.7439 12.4462C11.7507 12.4283 11.7523 12.4089 11.7484 12.3902V12.1006C11.7474 12.0632 11.7182 12.0471 11.6879 12.0663Z" fill="#3AB14A"/>
<path d="M9.01602 9.30205C9.0564 9.28186 9.08971 9.30205 9.09071 9.35955L9.09471 9.79755C9.24567 9.72896 9.4141 9.70851 9.57709 9.73899C9.6084 9.74711 9.62146 9.78949 9.6094 9.83993L9.51352 10.2244C9.50626 10.2534 9.49127 10.2799 9.47015 10.3011C9.46272 10.3084 9.4542 10.3145 9.4449 10.3192C9.43351 10.3254 9.42036 10.3276 9.40758 10.3254C9.24866 10.2901 9.08228 10.3168 8.94233 10.4C8.84206 10.4452 8.75658 10.5177 8.6957 10.6093C8.63483 10.7009 8.60103 10.8078 8.59821 10.9177C8.59821 11.1196 8.69915 11.1751 9.05134 11.1811C9.51659 11.1892 9.7184 11.3921 9.72346 11.8613C9.71799 12.1033 9.65991 12.3412 9.55325 12.5585C9.4466 12.7759 9.29393 12.9674 9.10583 13.1197L9.11396 13.5496C9.11361 13.5759 9.10667 13.6017 9.09379 13.6246C9.08091 13.6476 9.06249 13.6669 9.04021 13.6809L8.78596 13.8271C8.74559 13.8473 8.71221 13.8271 8.71127 13.7706V13.3478C8.49327 13.4386 8.27227 13.4598 8.13096 13.4033C8.10471 13.3932 8.09265 13.3539 8.10371 13.3084L8.19559 12.9199C8.20256 12.8892 8.21832 12.8611 8.24096 12.8392C8.24815 12.8323 8.25634 12.8265 8.26521 12.822C8.27171 12.8191 8.27877 12.8176 8.2859 12.8176C8.29303 12.8176 8.30008 12.8191 8.30659 12.822C8.48646 12.8707 8.67834 12.8465 8.8404 12.7544C8.95515 12.6991 9.05258 12.6134 9.12214 12.5067C9.1917 12.4 9.23073 12.2763 9.23502 12.1489C9.23502 11.9309 9.1149 11.8401 8.83133 11.8381C8.46502 11.8381 8.1249 11.7674 8.11783 11.2326C8.122 11.0018 8.17718 10.7748 8.27942 10.5679C8.38167 10.3609 8.52844 10.1792 8.70921 10.0357L8.69108 9.59568C8.69102 9.56906 8.69774 9.54286 8.71063 9.51956C8.72351 9.49627 8.74213 9.47664 8.76471 9.46255L9.01602 9.30205Z" fill="white"/>
</g>
<defs>
<clipPath id="clip0_1086_929">
<rect width="14" height="16" fill="white" transform="translate(0 0.5)"/>
</clipPath>
</defs>
</svg>
